<?xml version="1.0" encoding="UTF-8"?>
<svg width="251.7mm" height="118.61mm" version="1.1" viewBox="0 0 251.7 118.61" xmlns="http://www.w3.org/2000/svg" xmlns:xlink="http://www.w3.org/1999/xlink"><defs><linearGradient id="linearGradient29737"><stop stop-color="#55778a" offset="0"/><stop stop-color="#b88941" offset="1"/></linearGradient><linearGradient id="linearGradient29153"><stop stop-color="#e9d870" offset="0"/><stop stop-color="#89d6d8" offset="1"/></linearGradient><linearGradient id="linearGradient29155" x1="18.404" x2="22.088" y1="33.772" y2="36.072" gradientUnits="userSpaceOnUse" xlink:href="#linearGradient29153"/><linearGradient id="linearGradient29739" x1="22.088" x2="18.338" y1="36.072" y2="36.072" gradientUnits="userSpaceOnUse" xlink:href="#linearGradient29737"/><linearGradient id="linearGradient31376" x1="18.526" x2="21.411" y1="32.769" y2="34.774" gradientTransform="matrix(-1 0 0 1 42.247 2e-7)" gradientUnits="userSpaceOnUse" xlink:href="#linearGradient29153"/><linearGradient id="linearGradient31378" x1="21.411" x2="18.939" y1="34.774" y2="35.645" gradientTransform="matrix(-1 0 0 1 42.247 2e-7)" gradientUnits="userSpaceOnUse" xlink:href="#linearGradient29737"/><filter id="filter32065" x="-1.2272" y="-.16739" width="3.4545" height="1.3348" color-interpolation-filters="sRGB"><feGaussianBlur stdDeviation="0.42999095"/></filter><clipPath id="clipPath32533"><rect x="21.285" y="29.437" width="5.3022" height="15.074" fill="#fff" style="paint-order:stroke fill markers"/></clipPath><filter id="filter32065-2" x="-1.5803" y="-.21555" width="4.1606" height="1.4311" color-interpolation-filters="sRGB"><feGaussianBlur stdDeviation="0.42999095"/></filter><clipPath id="clipPath33114"><path d="m16.202 29.27h9.8071l-1.1297 12.837c-3.269-1.2417-4.6906-1.4201-7.934 0.09232z" fill="#fff" stroke-linecap="round" stroke-linejoin="bevel" stroke-width=".265" style="paint-order:stroke fill markers"/></clipPath><linearGradient id="linearGradient33266" x1="18.526" x2="21.411" y1="32.769" y2="34.774" gradientTransform="matrix(-1 0 0 1 42.247 2e-7)" gradientUnits="userSpaceOnUse" xlink:href="#linearGradient29153"/><linearGradient id="linearGradient33268" x1="21.411" x2="18.939" y1="34.774" y2="35.645" gradientTransform="matrix(-1 0 0 1 42.247 2e-7)" gradientUnits="userSpaceOnUse" xlink:href="#linearGradient29737"/><linearGradient id="linearGradient33284" x1="18.526" x2="21.411" y1="32.769" y2="34.774" gradientTransform="matrix(-1 0 0 1 42.247 2e-7)" gradientUnits="userSpaceOnUse" xlink:href="#linearGradient29153"/><linearGradient id="linearGradient33286" x1="21.411" x2="18.939" y1="34.774" y2="35.645" gradientTransform="matrix(-1 0 0 1 42.247 2e-7)" gradientUnits="userSpaceOnUse" xlink:href="#linearGradient29737"/><linearGradient id="linearGradient33302" x1="18.526" x2="21.411" y1="32.769" y2="34.774" gradientTransform="matrix(-1 0 0 1 42.247 2e-7)" gradientUnits="userSpaceOnUse" xlink:href="#linearGradient29153"/><linearGradient id="linearGradient33304" x1="21.411" x2="18.939" y1="34.774" y2="35.645" gradientTransform="matrix(-1 0 0 1 42.247 2e-7)" gradientUnits="userSpaceOnUse" xlink:href="#linearGradient29737"/><linearGradient id="linearGradient33320" x1="18.526" x2="21.411" y1="32.769" y2="34.774" gradientTransform="matrix(-1 0 0 1 42.247 2e-7)" gradientUnits="userSpaceOnUse" xlink:href="#linearGradient29153"/><linearGradient id="linearGradient33322" x1="21.411" x2="18.939" y1="34.774" y2="35.645" gradientTransform="matrix(-1 0 0 1 42.247 2e-7)" gradientUnits="userSpaceOnUse" xlink:href="#linearGradient29737"/><linearGradient id="linearGradient33382" x1="18.526" x2="21.411" y1="32.769" y2="34.774" gradientTransform="matrix(-1 0 0 1 42.247 2e-7)" gradientUnits="userSpaceOnUse" xlink:href="#linearGradient29153"/><linearGradient id="linearGradient33384" x1="21.411" x2="18.939" y1="34.774" y2="35.645" gradientTransform="matrix(-1 0 0 1 42.247 2e-7)" gradientUnits="userSpaceOnUse" xlink:href="#linearGradient29737"/><linearGradient id="linearGradient33400" x1="18.526" x2="21.411" y1="32.769" y2="34.774" gradientTransform="matrix(-1 0 0 1 42.247 2e-7)" gradientUnits="userSpaceOnUse" xlink:href="#linearGradient29153"/><linearGradient id="linearGradient33402" x1="21.411" x2="18.939" y1="34.774" y2="35.645" gradientTransform="matrix(-1 0 0 1 42.247 2e-7)" gradientUnits="userSpaceOnUse" xlink:href="#linearGradient29737"/><linearGradient id="linearGradient33418" x1="18.526" x2="21.411" y1="32.769" y2="34.774" gradientTransform="matrix(-1 0 0 1 42.247 2e-7)" gradientUnits="userSpaceOnUse" xlink:href="#linearGradient29153"/><linearGradient id="linearGradient33420" x1="21.411" x2="18.939" y1="34.774" y2="35.645" gradientTransform="matrix(-1 0 0 1 42.247 2e-7)" gradientUnits="userSpaceOnUse" xlink:href="#linearGradient29737"/></defs><g transform="translate(-23.961 -52.829)"><g transform="matrix(2.3966 .092972 -.092972 2.3966 65.791 -47.484)" fill="none" stroke="#000" stroke-linejoin="round"><g transform="matrix(1.1413 .76915 -.76915 1.1413 75.687 -6.3528)" stroke-width="2.4896"><path d="m21.124 30.114s-2.3189 1.3546-3.2808 3.3009c-0.96181 1.9463 0.65418 8.2863 0.65418 8.2863l2.6447 1.6252z" color="#000000"/><path d="m20.959 29.834s-2.381 1.3589-3.4082 3.4375c-0.2875 0.58179-0.35262 1.3742-0.33594 2.2656 0.01668 0.89141 0.13015 1.8776 0.27344 2.8008 0.28658 1.8463 0.69336 3.4434 0.69336 3.4434l0.14453 0.19727 2.6465 1.625 0.49414-0.27734-0.01758-13.213zm-0.16016 0.91602 0.01758 11.994-2.0293-1.2461c-0.02744-0.10864-0.38551-1.5155-0.65625-3.2598-0.14048-0.90511-0.25177-1.8682-0.26758-2.7129-0.01581-0.84473 0.07808-1.5754 0.27148-1.9668 0.71994-1.4569 2.0629-2.4092 2.6641-2.8086z" color="#000000"/></g><g transform="matrix(1.1413 .76915 -.76915 1.1413 75.484 -6.6162)" stroke-linecap="round" stroke-width="2.4896"><path d="m21.124 30.114s2.3189 1.3546 3.2808 3.3009c0.96181 1.9463-0.65418 8.2863-0.65418 8.2863l-2.6447 1.6252z" color="#000000"/><path d="m21.287 29.834-0.48828 0.2793-0.01758 13.213 0.49414 0.27734 2.6445-1.625 0.14453-0.19727s0.40874-1.597 0.69531-3.4434c0.14329-0.92317 0.25676-1.9094 0.27344-2.8008 0.01668-0.89141-0.05039-1.6838-0.33789-2.2656-1.0272-2.0786-3.4082-3.4375-3.4082-3.4375zm0.16211 0.91602c0.60167 0.39986 1.9444 1.3523 2.6641 2.8086 0.19341 0.39138 0.28534 1.1221 0.26953 1.9668-0.01581 0.84473-0.12514 1.8078-0.26562 2.7129-0.27074 1.7443-0.62881 3.1511-0.65625 3.2598l-2.0312 1.248z" color="#000000"/></g><ellipse transform="matrix(1.73 1.1659 -.60474 .89733 56.372 -4.8354)" cx="21.149" cy="36.778" rx=".88501" ry="6.4884" filter="url(#filter32065)" stroke-linecap="round" stroke-width="2.2805" style="paint-order:stroke fill markers"/><ellipse transform="matrix(.62623 .42203 -.69714 1.0344 84.494 3.9811)" cx="21.149" cy="36.778" rx=".88501" ry="6.4884" filter="url(#filter32065-2)" stroke-linecap="round" stroke-width="3.5303" style="paint-order:stroke fill markers"/><g transform="matrix(.33668 1.3344 -1.3344 .33668 118.87 19.177)" stroke-width="2.4896"><path d="m21.124 30.114s-2.3189 1.3546-3.2808 3.3009c-0.96181 1.9463 0.65418 8.2863 0.65418 8.2863l2.6447 1.6252z" color="#000000"/><path d="m20.959 29.834s-2.381 1.3589-3.4082 3.4375c-0.2875 0.58179-0.35262 1.3742-0.33594 2.2656 0.01668 0.89141 0.13015 1.8776 0.27344 2.8008 0.28658 1.8463 0.69336 3.4434 0.69336 3.4434l0.14453 0.19727 2.6465 1.625 0.49414-0.27734-0.01758-13.213zm-0.16016 0.91602 0.01758 11.994-2.0293-1.2461c-0.02744-0.10864-0.38551-1.5155-0.65625-3.2598-0.14048-0.90511-0.25177-1.8682-0.26758-2.7129-0.01581-0.84473 0.07808-1.5754 0.27148-1.9668 0.71994-1.4569 2.0629-2.4092 2.6641-2.8086z" color="#000000"/></g><g transform="matrix(.33668 1.3344 -1.3344 .33668 118.9 18.846)" stroke-linecap="round" stroke-width="2.4896"><path d="m21.124 30.114s2.3189 1.3546 3.2808 3.3009c0.96181 1.9463-0.65418 8.2863-0.65418 8.2863l-2.6447 1.6252z" color="#000000"/><path d="m21.287 29.834-0.48828 0.2793-0.01758 13.213 0.49414 0.27734 2.6445-1.625 0.14453-0.19727s0.40874-1.597 0.69531-3.4434c0.14329-0.92317 0.25676-1.9094 0.27344-2.8008 0.01668-0.89141-0.05039-1.6838-0.33789-2.2656-1.0272-2.0786-3.4082-3.4375-3.4082-3.4375zm0.16211 0.91602c0.60167 0.39986 1.9444 1.3523 2.6641 2.8086 0.19341 0.39138 0.28534 1.1221 0.26953 1.9668-0.01581 0.84473-0.12514 1.8078-0.26562 2.7129-0.27074 1.7443-0.62881 3.1511-0.65625 3.2598l-2.0312 1.248z" color="#000000"/></g><ellipse transform="matrix(.51034 2.0228 -1.0492 .26471 103.47 7.4173)" cx="21.149" cy="36.778" rx=".88501" ry="6.4884" filter="url(#filter32065)" stroke-linecap="round" stroke-width="2.2805" style="paint-order:stroke fill markers"/><ellipse transform="matrix(.18474 .73222 -1.2095 .30516 118.54 32.751)" cx="21.149" cy="36.778" rx=".88501" ry="6.4884" filter="url(#filter32065-2)" stroke-linecap="round" stroke-width="3.5303" style="paint-order:stroke fill markers"/><g transform="matrix(-.68839 1.1917 -1.1917 -.68839 133.77 69.832)" stroke-width="2.4896"><path d="m21.124 30.114s-2.3189 1.3546-3.2808 3.3009c-0.96181 1.9463 0.65418 8.2863 0.65418 8.2863l2.6447 1.6252z" color="#000000"/><path d="m20.959 29.834s-2.381 1.3589-3.4082 3.4375c-0.2875 0.58179-0.35262 1.3742-0.33594 2.2656 0.01668 0.89141 0.13015 1.8776 0.27344 2.8008 0.28658 1.8463 0.69336 3.4434 0.69336 3.4434l0.14453 0.19727 2.6465 1.625 0.49414-0.27734-0.01758-13.213zm-0.16016 0.91602 0.01758 11.994-2.0293-1.2461c-0.02744-0.10864-0.38551-1.5155-0.65625-3.2598-0.14048-0.90511-0.25177-1.8682-0.26758-2.7129-0.01581-0.84473 0.07808-1.5754 0.27148-1.9668 0.71994-1.4569 2.0629-2.4092 2.6641-2.8086z" color="#000000"/></g><g transform="matrix(-.68839 1.1917 -1.1917 -.68839 134.02 69.611)" stroke-linecap="round" stroke-width="2.4896"><path d="m21.124 30.114s2.3189 1.3546 3.2808 3.3009c0.96181 1.9463-0.65418 8.2863-0.65418 8.2863l-2.6447 1.6252z" color="#000000"/><path d="m21.287 29.834-0.48828 0.2793-0.01758 13.213 0.49414 0.27734 2.6445-1.625 0.14453-0.19727s0.40874-1.597 0.69531-3.4434c0.14329-0.92317 0.25676-1.9094 0.27344-2.8008 0.01668-0.89141-0.05039-1.6838-0.33789-2.2656-1.0272-2.0786-3.4082-3.4375-3.4082-3.4375zm0.16211 0.91602c0.60167 0.39986 1.9444 1.3523 2.6641 2.8086 0.19341 0.39138 0.28534 1.1221 0.26953 1.9668-0.01581 0.84473-0.12514 1.8078-0.26562 2.7129-0.27074 1.7443-0.62881 3.1511-0.65625 3.2598l-2.0312 1.248z" color="#000000"/></g><ellipse transform="matrix(-1.0435 1.8064 -.937 -.54125 130.92 50.668)" cx="21.149" cy="36.778" rx=".88501" ry="6.4884" filter="url(#filter32065)" stroke-linecap="round" stroke-width="2.2805" style="paint-order:stroke fill markers"/><ellipse transform="matrix(-.37772 .65391 -1.0802 -.62395 124.07 79.333)" cx="21.149" cy="36.778" rx=".88501" ry="6.4884" filter="url(#filter32065-2)" stroke-linecap="round" stroke-width="3.5303" style="paint-order:stroke fill markers"/><g transform="matrix(-1.3226 .38046 -.38046 -1.3226 109.38 116.36)" stroke-width="2.4896"><path d="m21.124 30.114s-2.3189 1.3546-3.2808 3.3009c-0.96181 1.9463 0.65418 8.2863 0.65418 8.2863l2.6447 1.6252z" color="#000000"/><path d="m20.959 29.834s-2.381 1.3589-3.4082 3.4375c-0.2875 0.58179-0.35262 1.3742-0.33594 2.2656 0.01668 0.89141 0.13015 1.8776 0.27344 2.8008 0.28658 1.8463 0.69336 3.4434 0.69336 3.4434l0.14453 0.19727 2.6465 1.625 0.49414-0.27734-0.01758-13.213zm-0.16016 0.91602 0.01758 11.994-2.0293-1.2461c-0.02744-0.10864-0.38551-1.5155-0.65625-3.2598-0.14048-0.90511-0.25177-1.8682-0.26758-2.7129-0.01581-0.84473 0.07808-1.5754 0.27148-1.9668 0.71994-1.4569 2.0629-2.4092 2.6641-2.8086z" color="#000000"/></g><g transform="matrix(-1.3226 .38046 -.38046 -1.3226 109.71 116.38)" stroke-linecap="round" stroke-width="2.4896"><path d="m21.124 30.114s2.3189 1.3546 3.2808 3.3009c0.96181 1.9463-0.65418 8.2863-0.65418 8.2863l-2.6447 1.6252z" color="#000000"/><path d="m21.287 29.834-0.48828 0.2793-0.01758 13.213 0.49414 0.27734 2.6445-1.625 0.14453-0.19727s0.40874-1.597 0.69531-3.4434c0.14329-0.92317 0.25676-1.9094 0.27344-2.8008 0.01668-0.89141-0.05039-1.6838-0.33789-2.2656-1.0272-2.0786-3.4082-3.4375-3.4082-3.4375zm0.16211 0.91602c0.60167 0.39986 1.9444 1.3523 2.6641 2.8086 0.19341 0.39138 0.28534 1.1221 0.26953 1.9668-0.01581 0.84473-0.12514 1.8078-0.26562 2.7129-0.27074 1.7443-0.62881 3.1511-0.65625 3.2598l-2.0312 1.248z" color="#000000"/></g><ellipse transform="matrix(-2.0049 .5767 -.29913 -1.0399 120.63 100.59)" cx="21.149" cy="36.778" rx=".88501" ry="6.4884" filter="url(#filter32065)" stroke-linecap="round" stroke-width="2.2805" style="paint-order:stroke fill markers"/><ellipse transform="matrix(-.72574 .20876 -.34484 -1.1988 95.804 116.47)" cx="21.149" cy="36.778" rx=".88501" ry="6.4884" filter="url(#filter32065-2)" stroke-linecap="round" stroke-width="3.5303" style="paint-order:stroke fill markers"/><g transform="matrix(-1.1432 -.76622 .76622 -1.1432 52.302 132.11)" stroke-width="2.4896"><path d="m21.124 30.114s-2.3189 1.3546-3.2808 3.3009c-0.96181 1.9463 0.65418 8.2863 0.65418 8.2863l2.6447 1.6252z" color="#000000"/><path d="m20.959 29.834s-2.381 1.3589-3.4082 3.4375c-0.2875 0.58179-0.35262 1.3742-0.33594 2.2656 0.01668 0.89141 0.13015 1.8776 0.27344 2.8008 0.28658 1.8463 0.69336 3.4434 0.69336 3.4434l0.14453 0.19727 2.6465 1.625 0.49414-0.27734-0.01758-13.213zm-0.16016 0.91602 0.01758 11.994-2.0293-1.2461c-0.02744-0.10864-0.38551-1.5155-0.65625-3.2598-0.14048-0.90511-0.25177-1.8682-0.26758-2.7129-0.01581-0.84473 0.07808-1.5754 0.27148-1.9668 0.71994-1.4569 2.0629-2.4092 2.6641-2.8086z" color="#000000"/></g><g transform="matrix(-1.1432 -.76622 .76622 -1.1432 52.506 132.38)" stroke-linecap="round" stroke-width="2.4896"><path d="m21.124 30.114s2.3189 1.3546 3.2808 3.3009c0.96181 1.9463-0.65418 8.2863-0.65418 8.2863l-2.6447 1.6252z" color="#000000"/><path d="m21.287 29.834-0.48828 0.2793-0.01758 13.213 0.49414 0.27734 2.6445-1.625 0.14453-0.19727s0.40874-1.597 0.69531-3.4434c0.14329-0.92317 0.25676-1.9094 0.27344-2.8008 0.01668-0.89141-0.05039-1.6838-0.33789-2.2656-1.0272-2.0786-3.4082-3.4375-3.4082-3.4375zm0.16211 0.91602c0.60167 0.39986 1.9444 1.3523 2.6641 2.8086 0.19341 0.39138 0.28534 1.1221 0.26953 1.9668-0.01581 0.84473-0.12514 1.8078-0.26562 2.7129-0.27074 1.7443-0.62881 3.1511-0.65625 3.2598l-2.0312 1.248z" color="#000000"/></g><ellipse transform="matrix(-1.7329 -1.1614 .60244 -.89887 71.614 130.55)" cx="21.149" cy="36.778" rx=".88501" ry="6.4884" filter="url(#filter32065)" stroke-linecap="round" stroke-width="2.2805" style="paint-order:stroke fill markers"/><ellipse transform="matrix(-.6273 -.42043 .69449 -1.0362 43.469 121.8)" cx="21.149" cy="36.778" rx=".88501" ry="6.4884" filter="url(#filter32065-2)" stroke-linecap="round" stroke-width="3.5303" style="paint-order:stroke fill markers"/><g transform="matrix(1.3602 .20991 -.20991 1.3602 44.686 -2.1651)" stroke-width="2.4896"><path d="m21.124 30.114s-2.3189 1.3546-3.2808 3.3009c-0.96181 1.9463 0.65418 8.2863 0.65418 8.2863l2.6447 1.6252z" color="#000000"/><path d="m20.959 29.834s-2.381 1.3589-3.4082 3.4375c-0.2875 0.58179-0.35262 1.3742-0.33594 2.2656 0.01668 0.89141 0.13015 1.8776 0.27344 2.8008 0.28658 1.8463 0.69336 3.4434 0.69336 3.4434l0.14453 0.19727 2.6465 1.625 0.49414-0.27734-0.01758-13.213zm-0.16016 0.91602 0.01758 11.994-2.0293-1.2461c-0.02744-0.10864-0.38551-1.5155-0.65625-3.2598-0.14048-0.90511-0.25177-1.8682-0.26758-2.7129-0.01581-0.84473 0.07808-1.5754 0.27148-1.9668 0.71994-1.4569 2.0629-2.4092 2.6641-2.8086z" color="#000000"/></g><g transform="matrix(1.3602 .20991 -.20991 1.3602 44.39 -2.3169)" stroke-linecap="round" stroke-width="2.4896"><path d="m21.124 30.114s2.3189 1.3546 3.2808 3.3009c0.96181 1.9463-0.65418 8.2863-0.65418 8.2863l-2.6447 1.6252z" color="#000000"/><path d="m21.287 29.834-0.48828 0.2793-0.01758 13.213 0.49414 0.27734 2.6445-1.625 0.14453-0.19727s0.40874-1.597 0.69531-3.4434c0.14329-0.92317 0.25676-1.9094 0.27344-2.8008 0.01668-0.89141-0.05039-1.6838-0.33789-2.2656-1.0272-2.0786-3.4082-3.4375-3.4082-3.4375zm0.16211 0.91602c0.60167 0.39986 1.9444 1.3523 2.6641 2.8086 0.19341 0.39138 0.28534 1.1221 0.26953 1.9668-0.01581 0.84473-0.12514 1.8078-0.26562 2.7129-0.27074 1.7443-0.62881 3.1511-0.65625 3.2598l-2.0312 1.248z" color="#000000"/></g><ellipse transform="matrix(2.0617 .31819 -.16504 1.0694 27.855 7.4333)" cx="21.149" cy="36.778" rx=".88501" ry="6.4884" filter="url(#filter32065)" stroke-linecap="round" stroke-width="2.2805" style="paint-order:stroke fill markers"/><ellipse transform="matrix(.74633 .11518 -.19026 1.2328 57.055 3.4346)" cx="21.149" cy="36.778" rx=".88501" ry="6.4884" filter="url(#filter32065-2)" stroke-linecap="round" stroke-width="3.5303" style="paint-order:stroke fill markers"/><g transform="matrix(.81335 1.1102 -1.1102 .81335 96.384 3.343)" stroke-width="2.4896"><path d="m21.124 30.114s-2.3189 1.3546-3.2808 3.3009c-0.96181 1.9463 0.65418 8.2863 0.65418 8.2863l2.6447 1.6252z" color="#000000"/><path d="m20.959 29.834s-2.381 1.3589-3.4082 3.4375c-0.2875 0.58179-0.35262 1.3742-0.33594 2.2656 0.01668 0.89141 0.13015 1.8776 0.27344 2.8008 0.28658 1.8463 0.69336 3.4434 0.69336 3.4434l0.14453 0.19727 2.6465 1.625 0.49414-0.27734-0.01758-13.213zm-0.16016 0.91602 0.01758 11.994-2.0293-1.2461c-0.02744-0.10864-0.38551-1.5155-0.65625-3.2598-0.14048-0.90511-0.25177-1.8682-0.26758-2.7129-0.01581-0.84473 0.07808-1.5754 0.27148-1.9668 0.71994-1.4569 2.0629-2.4092 2.6641-2.8086z" color="#000000"/></g><g transform="matrix(.81335 1.1102 -1.1102 .81335 96.282 3.0264)" stroke-linecap="round" stroke-width="2.4896"><path d="m21.124 30.114s2.3189 1.3546 3.2808 3.3009c0.96181 1.9463-0.65418 8.2863-0.65418 8.2863l-2.6447 1.6252z" color="#000000"/><path d="m21.287 29.834-0.48828 0.2793-0.01758 13.213 0.49414 0.27734 2.6445-1.625 0.14453-0.19727s0.40874-1.597 0.69531-3.4434c0.14329-0.92317 0.25676-1.9094 0.27344-2.8008 0.01668-0.89141-0.05039-1.6838-0.33789-2.2656-1.0272-2.0786-3.4082-3.4375-3.4082-3.4375zm0.16211 0.91602c0.60167 0.39986 1.9444 1.3523 2.6641 2.8086 0.19341 0.39138 0.28534 1.1221 0.26953 1.9668-0.01581 0.84473-0.12514 1.8078-0.26562 2.7129-0.27074 1.7443-0.62881 3.1511-0.65625 3.2598l-2.0312 1.248z" color="#000000"/></g><ellipse transform="matrix(1.2329 1.6829 -.8729 .63949 77.696 -1.7708)" cx="21.149" cy="36.778" rx=".88501" ry="6.4884" filter="url(#filter32065)" stroke-linecap="round" stroke-width="2.2805" style="paint-order:stroke fill markers"/><ellipse transform="matrix(.44629 .60918 -1.0063 .73721 101.17 16.049)" cx="21.149" cy="36.778" rx=".88501" ry="6.4884" filter="url(#filter32065-2)" stroke-linecap="round" stroke-width="3.5303" style="paint-order:stroke fill markers"/><g transform="matrix(-.20991 1.3602 -1.3602 -.20991 129.05 43.794)" stroke-width="2.4896"><path d="m21.124 30.114s-2.3189 1.3546-3.2808 3.3009c-0.96181 1.9463 0.65418 8.2863 0.65418 8.2863l2.6447 1.6252z" color="#000000"/><path d="m20.959 29.834s-2.381 1.3589-3.4082 3.4375c-0.2875 0.58179-0.35262 1.3742-0.33594 2.2656 0.01668 0.89141 0.13015 1.8776 0.27344 2.8008 0.28658 1.8463 0.69336 3.4434 0.69336 3.4434l0.14453 0.19727 2.6465 1.625 0.49414-0.27734-0.01758-13.213zm-0.16016 0.91602 0.01758 11.994-2.0293-1.2461c-0.02744-0.10864-0.38551-1.5155-0.65625-3.2598-0.14048-0.90511-0.25177-1.8682-0.26758-2.7129-0.01581-0.84473 0.07808-1.5754 0.27148-1.9668 0.71994-1.4569 2.0629-2.4092 2.6641-2.8086z" color="#000000"/></g><g transform="matrix(-.20991 1.3602 -1.3602 -.20991 129.2 43.498)" stroke-linecap="round" stroke-width="2.4896"><path d="m21.124 30.114s2.3189 1.3546 3.2808 3.3009c0.96181 1.9463-0.65418 8.2863-0.65418 8.2863l-2.6447 1.6252z" color="#000000"/><path d="m21.287 29.834-0.48828 0.2793-0.01758 13.213 0.49414 0.27734 2.6445-1.625 0.14453-0.19727s0.40874-1.597 0.69531-3.4434c0.14329-0.92317 0.25676-1.9094 0.27344-2.8008 0.01668-0.89141-0.05039-1.6838-0.33789-2.2656-1.0272-2.0786-3.4082-3.4375-3.4082-3.4375zm0.16211 0.91602c0.60167 0.39986 1.9444 1.3523 2.6641 2.8086 0.19341 0.39138 0.28534 1.1221 0.26953 1.9668-0.01581 0.84473-0.12514 1.8078-0.26562 2.7129-0.27074 1.7443-0.62881 3.1511-0.65625 3.2598l-2.0312 1.248z" color="#000000"/></g><ellipse transform="matrix(-.31819 2.0617 -1.0694 -.16504 119.45 26.963)" cx="21.149" cy="36.778" rx=".88501" ry="6.4884" filter="url(#filter32065)" stroke-linecap="round" stroke-width="2.2805" style="paint-order:stroke fill markers"/><ellipse transform="matrix(-.11518 .74633 -1.2328 -.19026 123.45 56.163)" cx="21.149" cy="36.778" rx=".88501" ry="6.4884" filter="url(#filter32065-2)" stroke-linecap="round" stroke-width="3.5303" style="paint-order:stroke fill markers"/><g transform="matrix(-1.1102 .81335 -.81335 -1.1102 123.54 95.492)" stroke-width="2.4896"><path d="m21.124 30.114s-2.3189 1.3546-3.2808 3.3009c-0.96181 1.9463 0.65418 8.2863 0.65418 8.2863l2.6447 1.6252z" color="#000000"/><path d="m20.959 29.834s-2.381 1.3589-3.4082 3.4375c-0.2875 0.58179-0.35262 1.3742-0.33594 2.2656 0.01668 0.89141 0.13015 1.8776 0.27344 2.8008 0.28658 1.8463 0.69336 3.4434 0.69336 3.4434l0.14453 0.19727 2.6465 1.625 0.49414-0.27734-0.01758-13.213zm-0.16016 0.91602 0.01758 11.994-2.0293-1.2461c-0.02744-0.10864-0.38551-1.5155-0.65625-3.2598-0.14048-0.90511-0.25177-1.8682-0.26758-2.7129-0.01581-0.84473 0.07808-1.5754 0.27148-1.9668 0.71994-1.4569 2.0629-2.4092 2.6641-2.8086z" color="#000000"/></g><g transform="matrix(-1.1102 .81335 -.81335 -1.1102 123.85 95.39)" stroke-linecap="round" stroke-width="2.4896"><path d="m21.124 30.114s2.3189 1.3546 3.2808 3.3009c0.96181 1.9463-0.65418 8.2863-0.65418 8.2863l-2.6447 1.6252z" color="#000000"/><path d="m21.287 29.834-0.48828 0.2793-0.01758 13.213 0.49414 0.27734 2.6445-1.625 0.14453-0.19727s0.40874-1.597 0.69531-3.4434c0.14329-0.92317 0.25676-1.9094 0.27344-2.8008 0.01668-0.89141-0.05039-1.6838-0.33789-2.2656-1.0272-2.0786-3.4082-3.4375-3.4082-3.4375zm0.16211 0.91602c0.60167 0.39986 1.9444 1.3523 2.6641 2.8086 0.19341 0.39138 0.28534 1.1221 0.26953 1.9668-0.01581 0.84473-0.12514 1.8078-0.26562 2.7129-0.27074 1.7443-0.62881 3.1511-0.65625 3.2598l-2.0312 1.248z" color="#000000"/></g><ellipse transform="matrix(-1.6829 1.2329 -.63949 -.8729 128.65 76.804)" cx="21.149" cy="36.778" rx=".88501" ry="6.4884" filter="url(#filter32065)" stroke-linecap="round" stroke-width="2.2805" style="paint-order:stroke fill markers"/><ellipse transform="matrix(-.60918 .44629 -.73721 -1.0063 110.83 100.28)" cx="21.149" cy="36.778" rx=".88501" ry="6.4884" filter="url(#filter32065-2)" stroke-linecap="round" stroke-width="3.5303" style="paint-order:stroke fill markers"/><g transform="matrix(-1.3602 -.20991 .20991 -1.3602 83.086 128.15)" stroke-width="2.4896"><path d="m21.124 30.114s-2.3189 1.3546-3.2808 3.3009c-0.96181 1.9463 0.65418 8.2863 0.65418 8.2863l2.6447 1.6252z" color="#000000"/><path d="m20.959 29.834s-2.381 1.3589-3.4082 3.4375c-0.2875 0.58179-0.35262 1.3742-0.33594 2.2656 0.01668 0.89141 0.13015 1.8776 0.27344 2.8008 0.28658 1.8463 0.69336 3.4434 0.69336 3.4434l0.14453 0.19727 2.6465 1.625 0.49414-0.27734-0.01758-13.213zm-0.16016 0.91602 0.01758 11.994-2.0293-1.2461c-0.02744-0.10864-0.38551-1.5155-0.65625-3.2598-0.14048-0.90511-0.25177-1.8682-0.26758-2.7129-0.01581-0.84473 0.07808-1.5754 0.27148-1.9668 0.71994-1.4569 2.0629-2.4092 2.6641-2.8086z" color="#000000"/></g><g transform="matrix(-1.3602 -.20991 .20991 -1.3602 83.382 128.31)" stroke-linecap="round" stroke-width="2.4896"><path d="m21.124 30.114s2.3189 1.3546 3.2808 3.3009c0.96181 1.9463-0.65418 8.2863-0.65418 8.2863l-2.6447 1.6252z" color="#000000"/><path d="m21.287 29.834-0.48828 0.2793-0.01758 13.213 0.49414 0.27734 2.6445-1.625 0.14453-0.19727s0.40874-1.597 0.69531-3.4434c0.14329-0.92317 0.25676-1.9094 0.27344-2.8008 0.01668-0.89141-0.05039-1.6838-0.33789-2.2656-1.0272-2.0786-3.4082-3.4375-3.4082-3.4375zm0.16211 0.91602c0.60167 0.39986 1.9444 1.3523 2.6641 2.8086 0.19341 0.39138 0.28534 1.1221 0.26953 1.9668-0.01581 0.84473-0.12514 1.8078-0.26562 2.7129-0.27074 1.7443-0.62881 3.1511-0.65625 3.2598l-2.0312 1.248z" color="#000000"/></g><ellipse transform="matrix(-2.0617 -.31819 .16504 -1.0694 99.917 118.55)" cx="21.149" cy="36.778" rx=".88501" ry="6.4884" filter="url(#filter32065)" stroke-linecap="round" stroke-width="2.2805" style="paint-order:stroke fill markers"/><ellipse transform="matrix(-.74633 -.11518 .19026 -1.2328 70.717 122.55)" cx="21.149" cy="36.778" rx=".88501" ry="6.4884" filter="url(#filter32065-2)" stroke-linecap="round" stroke-width="3.5303" style="paint-order:stroke fill markers"/><g transform="matrix(-.81335 -1.1102 1.1102 -.81335 29.934 122.18)" stroke-width="2.4896"><path d="m21.124 30.114s-2.3189 1.3546-3.2808 3.3009c-0.96181 1.9463 0.65418 8.2863 0.65418 8.2863l2.6447 1.6252z" color="#000000"/><path d="m20.959 29.834s-2.381 1.3589-3.4082 3.4375c-0.2875 0.58179-0.35262 1.3742-0.33594 2.2656 0.01668 0.89141 0.13015 1.8776 0.27344 2.8008 0.28658 1.8463 0.69336 3.4434 0.69336 3.4434l0.14453 0.19727 2.6465 1.625 0.49414-0.27734-0.01758-13.213zm-0.16016 0.91602 0.01758 11.994-2.0293-1.2461c-0.02744-0.10864-0.38551-1.5155-0.65625-3.2598-0.14048-0.90511-0.25177-1.8682-0.26758-2.7129-0.01581-0.84473 0.07808-1.5754 0.27148-1.9668 0.71994-1.4569 2.0629-2.4092 2.6641-2.8086z" color="#000000"/></g><g transform="matrix(-.81335 -1.1102 1.1102 -.81335 30.036 122.5)" stroke-linecap="round" stroke-width="2.4896"><path d="m21.124 30.114s2.3189 1.3546 3.2808 3.3009c0.96181 1.9463-0.65418 8.2863-0.65418 8.2863l-2.6447 1.6252z" color="#000000"/><path d="m21.287 29.834-0.48828 0.2793-0.01758 13.213 0.49414 0.27734 2.6445-1.625 0.14453-0.19727s0.40874-1.597 0.69531-3.4434c0.14329-0.92317 0.25676-1.9094 0.27344-2.8008 0.01668-0.89141-0.05039-1.6838-0.33789-2.2656-1.0272-2.0786-3.4082-3.4375-3.4082-3.4375zm0.16211 0.91602c0.60167 0.39986 1.9444 1.3523 2.6641 2.8086 0.19341 0.39138 0.28534 1.1221 0.26953 1.9668-0.01581 0.84473-0.12514 1.8078-0.26562 2.7129-0.27074 1.7443-0.62881 3.1511-0.65625 3.2598l-2.0312 1.248z" color="#000000"/></g><ellipse transform="matrix(-1.2329 -1.6829 .8729 -.63949 48.622 127.3)" cx="21.149" cy="36.778" rx=".88501" ry="6.4884" filter="url(#filter32065)" stroke-linecap="round" stroke-width="2.2805" style="paint-order:stroke fill markers"/><ellipse transform="matrix(-.44629 -.60918 1.0063 -.73721 25.148 109.48)" cx="21.149" cy="36.778" rx=".88501" ry="6.4884" filter="url(#filter32065-2)" stroke-linecap="round" stroke-width="3.5303" style="paint-order:stroke fill markers"/></g><path d="m34.222 115.68 1.8503-17.422 26.975-14.208 50.279-4.0711 28.505-0.71593 73.694 21.642-3.683 14.85-68.473 8.0058s-39.29 0.12074-40.651 0.81071c-1.361 0.68993-13.734 8.8764-15.007 9.7084-1.2735 0.832-14.712 0.832-16.328 0.832-1.616 0-17.606-11.716-17.606-11.716l-8.1991-5.2741z"/><rect x="150.62" y="59.876" width="70.574" height="54.414" style="paint-order:stroke fill markers"/><g transform="matrix(3.3014 0 -.55426 3.3014 15.624 41.078)" fill="#fff" stroke="#000" stroke-linejoin="round" stroke-width="2.7249" style="paint-order:stroke fill markers" aria-label="BRIDGE TO"><path d="m54.776 13.741c-0.46406 0-0.87967-0.08518-1.2468-0.25553-0.36714-0.17035-0.67994-0.40532-0.93841-0.70491-0.25553-0.30252-0.45232-0.65938-0.59036-1.0706-0.13511-0.41413-0.20266-0.86351-0.20266-1.3481 0-0.48462 0.06609-0.93253 0.19826-1.3437 0.13217-0.41413 0.32455-0.77099 0.57714-1.0706 0.25553-0.30252 0.56833-0.53896 0.93841-0.70931 0.37008-0.17035 0.79155-0.25553 1.2644-0.25553 0.46113 0 0.87526 0.085176 1.2424 0.25553 0.37008 0.17035 0.68288 0.40679 0.93841 0.70931 0.25847 0.29959 0.45525 0.65645 0.59036 1.0706 0.13804 0.4112 0.20707 0.85911 0.20707 1.3437 0 0.48462-0.06608 0.934-0.19826 1.3481-0.13217 0.4112-0.32602 0.76806-0.58155 1.0706-0.25259 0.29958-0.56393 0.53456-0.934 0.70491s-0.79155 0.25553-1.2644 0.25553zm2.0619-3.2426c0-0.23497-0.01615-0.46553-0.04846-0.69169-0.032309-0.2291-0.08371-0.44497-0.1542-0.64763-0.070491-0.2056-0.16154-0.39504-0.27315-0.56833-0.11161-0.17623-0.24525-0.32749-0.40092-0.45378-0.15273-0.1263-0.33043-0.22469-0.53309-0.29518-0.19972-0.073428-0.42588-0.11014-0.67847-0.11014-0.36126 0-0.67113 0.070491-0.9296 0.21147-0.25553 0.13804-0.46553 0.32308-0.63001 0.55512-0.16448 0.23203-0.2849 0.49637-0.36127 0.79302-0.07636 0.29665-0.11455 0.60211-0.11455 0.91638 0 0.23791 0.01615 0.47141 0.04846 0.7005 0.03525 0.2291 0.08811 0.44791 0.1586 0.65644 0.07049 0.2056 0.16007 0.39651 0.26875 0.57274 0.11161 0.17329 0.24378 0.32308 0.39651 0.44938 0.15567 0.1263 0.33336 0.22616 0.53309 0.29959 0.20266 0.07049 0.43029 0.10574 0.68288 0.10574 0.23791 0 0.45378-0.03231 0.64763-0.09692 0.19385-0.06755 0.36567-0.1586 0.51546-0.27315 0.15273-0.11455 0.28343-0.25112 0.3921-0.40973 0.10867-0.1586 0.19826-0.32896 0.26875-0.51106 0.07343-0.18504 0.1263-0.37889 0.1586-0.58155 0.03525-0.2056 0.05287-0.41266 0.05287-0.6212zm-8.2518 3.1677v-5.9036h-1.8284v-0.70491h4.5599v0.70491h-1.8063v5.9036zm-5.1117-0.70491-0.08811 0.70491h-3.7448l0.06609-0.88114v-4.8022l-0.13218-0.92519h3.7448v0.70491h-2.7756l0.08811 0.83708v1.1675h2.3791v0.63882h-2.3791v1.7623l-0.04406 0.79302zm-5.0445-0.16301c-0.12042 0.13217-0.25553 0.257-0.40532 0.37448-0.14979 0.11455-0.31427 0.21441-0.49344 0.29959-0.17916 0.08224-0.37448 0.14686-0.58596 0.19385-0.21147 0.04993-0.4391 0.0749-0.68288 0.0749-0.42294 0-0.8033-0.09105-1.1411-0.27315-0.33777-0.18504-0.6256-0.43469-0.86351-0.74896-0.23497-0.31427-0.4156-0.68141-0.5419-1.1014-0.12336-0.42001-0.18504-0.86792-0.18504-1.3437 0-0.4435 0.0558-0.86351 0.16742-1.26 0.11455-0.39945 0.28784-0.74896 0.51987-1.0486 0.23497-0.30252 0.53015-0.5419 0.88554-0.71813s0.7754-0.26434 1.26-0.26434c0.33777 0 0.65644 0.054337 0.95603 0.16301 0.30252 0.10574 0.55952 0.25993 0.77099 0.4626l-0.39651 0.47141c-0.14098-0.09399-0.31868-0.17623-0.53309-0.24672-0.21147-0.070491-0.45378-0.10574-0.72694-0.10574-0.35833 0-0.66232 0.067554-0.91198 0.20266-0.24966 0.13511-0.45378 0.31868-0.61239 0.55071-0.1586 0.2291-0.27462 0.49784-0.34805 0.80624-0.07049 0.30546-0.10574 0.63001-0.10574 0.97365 0 0.20266 0.01615 0.4112 0.04846 0.62561 0.03231 0.21147 0.08077 0.41854 0.14539 0.6212 0.06755 0.20266 0.15273 0.39357 0.25553 0.57274 0.10574 0.17916 0.2291 0.3363 0.37008 0.47141 0.14392 0.13511 0.30693 0.24231 0.48903 0.32162 0.1821 0.0793 0.38623 0.11895 0.61239 0.11895 0.13217 0 0.25993-0.01322 0.38329-0.03965 0.12336-0.02937 0.23791-0.06609 0.34364-0.11014 0.10574-0.04406 0.19972-0.09252 0.28196-0.14539 0.08518-0.05581 0.1542-0.11161 0.20707-0.16742v-1.705l-1.3658-0.08811v-0.61679h2.2028zm-10.265-5.7406c0.09105-0.00881 0.19972-0.016154 0.32602-0.022028 0.1263-0.00587 0.25553-0.010279 0.3877-0.013217 0.13511-0.00587 0.26728-0.00881 0.39651-0.00881 0.13217-0.00294 0.24672-0.00441 0.34364-0.00441 0.467 0 0.89876 0.057274 1.2953 0.17182 0.39945 0.11455 0.74456 0.29665 1.0353 0.5463s0.5184 0.5698 0.68288 0.96044c0.16448 0.39064 0.24672 0.86058 0.24672 1.4098 0 0.42882-0.04112 0.81505-0.12336 1.1587-0.08224 0.3407-0.19679 0.64323-0.34364 0.90757-0.14392 0.26434-0.31868 0.49197-0.52428 0.68288-0.20266 0.18798-0.42735 0.34364-0.67407 0.467-0.24378 0.12042-0.50372 0.21-0.7798 0.26875-0.27609 0.05581-0.56099 0.08371-0.8547 0.08371h-1.2821v-5.6833zm1.0574 1.542v4.3616h0.08811c0.42588 0 0.78715-0.04406 1.0838-0.13217s0.5419-0.20413 0.73575-0.34805c0.19679-0.14686 0.34952-0.31427 0.45819-0.50225 0.11161-0.19091 0.19385-0.3877 0.24672-0.59036 0.05581-0.20266 0.08958-0.40385 0.10133-0.60358 0.01175-0.19972 0.01762-0.38476 0.01762-0.55512 0-0.37301-0.03231-0.71519-0.09692-1.0265-0.064613-0.31427-0.18357-0.58302-0.35686-0.80624-0.17329-0.22616-0.4156-0.40092-0.72694-0.52428-0.3084-0.1263-0.70638-0.18944-1.1939-0.18944-0.04699 0-0.09692 0.00147-0.14979 0.00441-0.05287 0.00294-0.1028 0.00735-0.14979 0.013217-0.05287 0.00587-0.10867 0.011748-0.16742 0.017623zm-3.6126 5.0665v-5.6833l-0.13217-0.92519 1.0574-0.088113v6.6966zm-4.8022-2.7051v2.7051h-0.92519v-5.6833l-0.1542-0.88114c0.09692-0.011749 0.21294-0.023497 0.34805-0.035245 0.13804-0.011749 0.2805-0.022029 0.42735-0.03084 0.14979-0.00881 0.29959-0.016154 0.44938-0.022028 0.14979-0.00587 0.28784-0.00881 0.41413-0.00881 0.37008 0 0.70784 0.039651 1.0133 0.11895 0.30546 0.076365 0.56686 0.19091 0.78421 0.34364s0.38623 0.34364 0.50665 0.57274c0.12042 0.22616 0.18063 0.48756 0.18063 0.78421 0 0.3084-0.04846 0.58008-0.14539 0.81505-0.09399 0.23497-0.22763 0.43616-0.40092 0.60358-0.17329 0.16448-0.38036 0.29959-0.6212 0.40532-0.23791 0.1028-0.49931 0.17916-0.78421 0.2291l0.62561 0.17623 1.9517 2.6126h-0.98246l-1.9517-2.6214c-0.03231-0.04112-0.06902-0.06462-0.11014-0.07049-0.04112-0.0088-0.07343-0.01322-0.09692-0.01322zm0-2.3482v1.683h0.65204c0.26728 0 0.49931-0.03671 0.6961-0.11014 0.19679-0.07636 0.3598-0.1777 0.48903-0.30399 0.12923-0.12923 0.22616-0.27756 0.29078-0.44497 0.06462-0.17035 0.09693-0.35099 0.09693-0.5419 0-0.24965-0.04699-0.45672-0.14098-0.6212-0.093987-0.16742-0.21588-0.29959-0.36567-0.39651-0.14979-0.099862-0.31721-0.16888-0.50225-0.20707-0.18504-0.041119-0.36714-0.061679-0.5463-0.061679-0.06168 0-0.1263 0.00147-0.19385 0.00441-0.06755 0-0.13511 0.00147-0.20266 0.00441-0.06755 0.00294-0.13364 0.00881-0.19826 0.017623-0.06168 0.00587-0.11602 0.013216-0.16301 0.022028zm-5.7274 0v1.1543h0.48462c0.19091 0 0.37595-0.02056 0.55512-0.061679 0.17916-0.044057 0.33777-0.11161 0.47581-0.20266 0.14098-0.093988 0.25406-0.21441 0.33924-0.36127 0.08518-0.14686 0.12776-0.32455 0.12776-0.53309 0-0.19385-0.04112-0.35539-0.12336-0.48462s-0.19091-0.23203-0.32602-0.3084c-0.13217-0.076365-0.28196-0.12923-0.44938-0.1586-0.16742-0.032308-0.33483-0.048462-0.50225-0.048462-0.04993 0-0.10427 0.00147-0.16301 0.00441s-0.11895 0.00881-0.18063 0.017623c-0.05874 0.00587-0.11748 0.013216-0.17623 0.022028-0.05581 0.00881-0.10574 0.017623-0.14979 0.026434zm-0.92519 5.0533v-5.6833l-0.13217-0.88114c0.08811-0.011749 0.18944-0.023497 0.30399-0.035245 0.11748-0.011749 0.23791-0.02056 0.36127-0.026434 0.12336-0.00881 0.24525-0.014686 0.36567-0.017623 0.12042-0.00587 0.22763-0.00881 0.32161-0.00881 0.32602 0 0.64029 0.022028 0.94281 0.066085 0.30546 0.041119 0.57568 0.11748 0.81064 0.2291 0.23497 0.11161 0.42294 0.26581 0.56393 0.4626 0.14098 0.19385 0.21147 0.44204 0.21147 0.74456 0 0.32015-0.07783 0.59623-0.2335 0.82827-0.15273 0.23203-0.35539 0.40973-0.60798 0.53309l-0.67847 0.19385 0.64763 0.06168c0.17916 0.05287 0.34805 0.12189 0.50665 0.20707 0.16154 0.08224 0.30252 0.18357 0.42294 0.30399 0.12042 0.12042 0.21441 0.26287 0.28196 0.42735 0.07049 0.16448 0.10574 0.35392 0.10574 0.56833 0 0.24966-0.03378 0.47288-0.10133 0.66966-0.06755 0.19679-0.1586 0.37008-0.27315 0.51987-0.11455 0.14979-0.24966 0.27903-0.40532 0.3877-0.15567 0.10574-0.32308 0.19238-0.50225 0.25994-0.17623 0.06462-0.3598 0.11308-0.55071 0.14539-0.18798 0.02937-0.37301 0.04406-0.55512 0.04406zm0.92519-0.70491h0.61679c0.29078 0 0.5463-0.02056 0.76659-0.06168 0.22028-0.04405 0.40532-0.11454 0.55512-0.21147 0.14979-0.09986 0.2614-0.23056 0.33483-0.3921 0.07636-0.16448 0.11455-0.36861 0.11455-0.61239 0-0.22028-0.03818-0.40826-0.11455-0.56393-0.07637-0.15567-0.18504-0.28343-0.32602-0.38329-0.13804-0.09986-0.30546-0.17182-0.50225-0.21588-0.19679-0.04699-0.41413-0.07049-0.65204-0.07049h-0.79302z"/></g><g transform="matrix(2.3966 .092972 -.092972 2.3966 65.791 -47.484)" stroke-width=".6498"><g transform="matrix(1.1413 .76915 -.76915 1.1413 75.687 -6.3528)" clip-path="url(#clipPath33114)"><path d="m21.124 30.114s-2.3189 1.3546-3.2808 3.3009c-0.96181 1.9463 0.65418 8.2863 0.65418 8.2863l2.6447 1.6252z" fill="url(#linearGradient29155)" stroke="url(#linearGradient29739)" stroke-linejoin="bevel" stroke-width=".6498"/><path transform="translate(-.2293 -.076209)" d="m21.124 30.114s2.3189 1.3546 3.2808 3.3009c0.96181 1.9463-0.65418 8.2863-0.65418 8.2863l-2.6447 1.6252z" clip-path="url(#clipPath32533)" fill="url(#linearGradient33320)" stroke="url(#linearGradient33322)" stroke-linecap="round" stroke-linejoin="bevel" stroke-width=".6498"/><ellipse transform="matrix(1.5158 0 0 .78625 -11.022 8.7579)" cx="21.149" cy="36.778" rx=".88501" ry="6.4884" fill="#33979a" filter="url(#filter32065)" style="mix-blend-mode:normal;paint-order:stroke fill markers"/><ellipse transform="matrix(.5487 0 0 .90638 9.503 2.6503)" cx="21.149" cy="36.778" rx=".88501" ry="6.4884" fill="#33979a" filter="url(#filter32065-2)" style="mix-blend-mode:normal;paint-order:stroke fill markers"/></g><g transform="matrix(.33668 1.3344 -1.3344 .33668 118.87 19.177)" clip-path="url(#clipPath33114)"><path d="m21.124 30.114s-2.3189 1.3546-3.2808 3.3009c-0.96181 1.9463 0.65418 8.2863 0.65418 8.2863l2.6447 1.6252z" fill="url(#linearGradient29155)" stroke="url(#linearGradient29739)" stroke-linejoin="bevel" stroke-width=".6498"/><path transform="translate(-.2293 -.076209)" d="m21.124 30.114s2.3189 1.3546 3.2808 3.3009c0.96181 1.9463-0.65418 8.2863-0.65418 8.2863l-2.6447 1.6252z" clip-path="url(#clipPath32533)" fill="url(#linearGradient33382)" stroke="url(#linearGradient33384)" stroke-linecap="round" stroke-linejoin="bevel" stroke-width=".6498"/><ellipse transform="matrix(1.5158 0 0 .78625 -11.022 8.7579)" cx="21.149" cy="36.778" rx=".88501" ry="6.4884" fill="#33979a" filter="url(#filter32065)" style="mix-blend-mode:normal;paint-order:stroke fill markers"/><ellipse transform="matrix(.5487 0 0 .90638 9.503 2.6503)" cx="21.149" cy="36.778" rx=".88501" ry="6.4884" fill="#33979a" filter="url(#filter32065-2)" style="mix-blend-mode:normal;paint-order:stroke fill markers"/></g><g transform="matrix(-.68839 1.1917 -1.1917 -.68839 133.77 69.832)" clip-path="url(#clipPath33114)"><path d="m21.124 30.114s-2.3189 1.3546-3.2808 3.3009c-0.96181 1.9463 0.65418 8.2863 0.65418 8.2863l2.6447 1.6252z" fill="url(#linearGradient29155)" stroke="url(#linearGradient29739)" stroke-linejoin="bevel" stroke-width=".6498"/><path transform="translate(-.2293 -.076209)" d="m21.124 30.114s2.3189 1.3546 3.2808 3.3009c0.96181 1.9463-0.65418 8.2863-0.65418 8.2863l-2.6447 1.6252z" clip-path="url(#clipPath32533)" fill="url(#linearGradient33400)" stroke="url(#linearGradient33402)" stroke-linecap="round" stroke-linejoin="bevel" stroke-width=".6498"/><ellipse transform="matrix(1.5158 0 0 .78625 -11.022 8.7579)" cx="21.149" cy="36.778" rx=".88501" ry="6.4884" fill="#33979a" filter="url(#filter32065)" style="mix-blend-mode:normal;paint-order:stroke fill markers"/><ellipse transform="matrix(.5487 0 0 .90638 9.503 2.6503)" cx="21.149" cy="36.778" rx=".88501" ry="6.4884" fill="#33979a" filter="url(#filter32065-2)" style="mix-blend-mode:normal;paint-order:stroke fill markers"/></g><g transform="matrix(-1.3226 .38046 -.38046 -1.3226 109.38 116.36)" clip-path="url(#clipPath33114)"><path d="m21.124 30.114s-2.3189 1.3546-3.2808 3.3009c-0.96181 1.9463 0.65418 8.2863 0.65418 8.2863l2.6447 1.6252z" fill="url(#linearGradient29155)" stroke="url(#linearGradient29739)" stroke-linejoin="bevel" stroke-width=".6498"/><path transform="translate(-.2293 -.076209)" d="m21.124 30.114s2.3189 1.3546 3.2808 3.3009c0.96181 1.9463-0.65418 8.2863-0.65418 8.2863l-2.6447 1.6252z" clip-path="url(#clipPath32533)" fill="url(#linearGradient33418)" stroke="url(#linearGradient33420)" stroke-linecap="round" stroke-linejoin="bevel" stroke-width=".6498"/><ellipse transform="matrix(1.5158 0 0 .78625 -11.022 8.7579)" cx="21.149" cy="36.778" rx=".88501" ry="6.4884" fill="#33979a" filter="url(#filter32065)" style="mix-blend-mode:normal;paint-order:stroke fill markers"/><ellipse transform="matrix(.5487 0 0 .90638 9.503 2.6503)" cx="21.149" cy="36.778" rx=".88501" ry="6.4884" fill="#33979a" filter="url(#filter32065-2)" style="mix-blend-mode:normal;paint-order:stroke fill markers"/></g><g transform="matrix(-1.1432 -.76622 .76622 -1.1432 52.302 132.11)" clip-path="url(#clipPath33114)"><path d="m21.124 30.114s-2.3189 1.3546-3.2808 3.3009c-0.96181 1.9463 0.65418 8.2863 0.65418 8.2863l2.6447 1.6252z" fill="url(#linearGradient29155)" stroke="url(#linearGradient29739)" stroke-linejoin="bevel" stroke-width=".6498"/><path transform="translate(-.2293 -.076209)" d="m21.124 30.114s2.3189 1.3546 3.2808 3.3009c0.96181 1.9463-0.65418 8.2863-0.65418 8.2863l-2.6447 1.6252z" clip-path="url(#clipPath32533)" fill="url(#linearGradient33382)" stroke="url(#linearGradient33384)" stroke-linecap="round" stroke-linejoin="bevel" stroke-width=".6498"/><ellipse transform="matrix(1.5158 0 0 .78625 -11.022 8.7579)" cx="21.149" cy="36.778" rx=".88501" ry="6.4884" fill="#33979a" filter="url(#filter32065)" style="mix-blend-mode:normal;paint-order:stroke fill markers"/><ellipse transform="matrix(.5487 0 0 .90638 9.503 2.6503)" cx="21.149" cy="36.778" rx=".88501" ry="6.4884" fill="#33979a" filter="url(#filter32065-2)" style="mix-blend-mode:normal;paint-order:stroke fill markers"/></g><g transform="matrix(1.3602 .20991 -.20991 1.3602 44.686 -2.1651)" clip-path="url(#clipPath33114)"><path d="m21.124 30.114s-2.3189 1.3546-3.2808 3.3009c-0.96181 1.9463 0.65418 8.2863 0.65418 8.2863l2.6447 1.6252z" fill="url(#linearGradient29155)" stroke="url(#linearGradient29739)" stroke-linejoin="bevel" stroke-width=".6498"/><path transform="translate(-.2293 -.076209)" d="m21.124 30.114s2.3189 1.3546 3.2808 3.3009c0.96181 1.9463-0.65418 8.2863-0.65418 8.2863l-2.6447 1.6252z" clip-path="url(#clipPath32533)" fill="url(#linearGradient31376)" stroke="url(#linearGradient31378)" stroke-linecap="round" stroke-linejoin="bevel" stroke-width=".6498"/><ellipse transform="matrix(1.5158 0 0 .78625 -11.022 8.7579)" cx="21.149" cy="36.778" rx=".88501" ry="6.4884" fill="#33979a" filter="url(#filter32065)" style="mix-blend-mode:normal;paint-order:stroke fill markers"/><ellipse transform="matrix(.5487 0 0 .90638 9.503 2.6503)" cx="21.149" cy="36.778" rx=".88501" ry="6.4884" fill="#33979a" filter="url(#filter32065-2)" style="mix-blend-mode:normal;paint-order:stroke fill markers"/></g><g transform="matrix(.81335 1.1102 -1.1102 .81335 96.384 3.343)" clip-path="url(#clipPath33114)"><path d="m21.124 30.114s-2.3189 1.3546-3.2808 3.3009c-0.96181 1.9463 0.65418 8.2863 0.65418 8.2863l2.6447 1.6252z" fill="url(#linearGradient29155)" stroke="url(#linearGradient29739)" stroke-linejoin="bevel" stroke-width=".6498"/><path transform="translate(-.2293 -.076209)" d="m21.124 30.114s2.3189 1.3546 3.2808 3.3009c0.96181 1.9463-0.65418 8.2863-0.65418 8.2863l-2.6447 1.6252z" clip-path="url(#clipPath32533)" fill="url(#linearGradient33266)" stroke="url(#linearGradient33268)" stroke-linecap="round" stroke-linejoin="bevel" stroke-width=".6498"/><ellipse transform="matrix(1.5158 0 0 .78625 -11.022 8.7579)" cx="21.149" cy="36.778" rx=".88501" ry="6.4884" fill="#33979a" filter="url(#filter32065)" style="mix-blend-mode:normal;paint-order:stroke fill markers"/><ellipse transform="matrix(.5487 0 0 .90638 9.503 2.6503)" cx="21.149" cy="36.778" rx=".88501" ry="6.4884" fill="#33979a" filter="url(#filter32065-2)" style="mix-blend-mode:normal;paint-order:stroke fill markers"/></g><g transform="matrix(-.20991 1.3602 -1.3602 -.20991 129.05 43.794)" clip-path="url(#clipPath33114)"><path d="m21.124 30.114s-2.3189 1.3546-3.2808 3.3009c-0.96181 1.9463 0.65418 8.2863 0.65418 8.2863l2.6447 1.6252z" fill="url(#linearGradient29155)" stroke="url(#linearGradient29739)" stroke-linejoin="bevel" stroke-width=".6498"/><path transform="translate(-.2293 -.076209)" d="m21.124 30.114s2.3189 1.3546 3.2808 3.3009c0.96181 1.9463-0.65418 8.2863-0.65418 8.2863l-2.6447 1.6252z" clip-path="url(#clipPath32533)" fill="url(#linearGradient33284)" stroke="url(#linearGradient33286)" stroke-linecap="round" stroke-linejoin="bevel" stroke-width=".6498"/><ellipse transform="matrix(1.5158 0 0 .78625 -11.022 8.7579)" cx="21.149" cy="36.778" rx=".88501" ry="6.4884" fill="#33979a" filter="url(#filter32065)" style="mix-blend-mode:normal;paint-order:stroke fill markers"/><ellipse transform="matrix(.5487 0 0 .90638 9.503 2.6503)" cx="21.149" cy="36.778" rx=".88501" ry="6.4884" fill="#33979a" filter="url(#filter32065-2)" style="mix-blend-mode:normal;paint-order:stroke fill markers"/></g><g transform="matrix(-1.1102 .81335 -.81335 -1.1102 123.54 95.492)" clip-path="url(#clipPath33114)"><path d="m21.124 30.114s-2.3189 1.3546-3.2808 3.3009c-0.96181 1.9463 0.65418 8.2863 0.65418 8.2863l2.6447 1.6252z" fill="url(#linearGradient29155)" stroke="url(#linearGradient29739)" stroke-linejoin="bevel" stroke-width=".6498"/><path transform="translate(-.2293 -.076209)" d="m21.124 30.114s2.3189 1.3546 3.2808 3.3009c0.96181 1.9463-0.65418 8.2863-0.65418 8.2863l-2.6447 1.6252z" clip-path="url(#clipPath32533)" fill="url(#linearGradient33302)" stroke="url(#linearGradient33304)" stroke-linecap="round" stroke-linejoin="bevel" stroke-width=".6498"/><ellipse transform="matrix(1.5158 0 0 .78625 -11.022 8.7579)" cx="21.149" cy="36.778" rx=".88501" ry="6.4884" fill="#33979a" filter="url(#filter32065)" style="mix-blend-mode:normal;paint-order:stroke fill markers"/><ellipse transform="matrix(.5487 0 0 .90638 9.503 2.6503)" cx="21.149" cy="36.778" rx=".88501" ry="6.4884" fill="#33979a" filter="url(#filter32065-2)" style="mix-blend-mode:normal;paint-order:stroke fill markers"/></g><g transform="matrix(-1.3602 -.20991 .20991 -1.3602 83.086 128.15)" clip-path="url(#clipPath33114)"><path d="m21.124 30.114s-2.3189 1.3546-3.2808 3.3009c-0.96181 1.9463 0.65418 8.2863 0.65418 8.2863l2.6447 1.6252z" fill="url(#linearGradient29155)" stroke="url(#linearGradient29739)" stroke-linejoin="bevel" stroke-width=".6498"/><path transform="translate(-.2293 -.076209)" d="m21.124 30.114s2.3189 1.3546 3.2808 3.3009c0.96181 1.9463-0.65418 8.2863-0.65418 8.2863l-2.6447 1.6252z" clip-path="url(#clipPath32533)" fill="url(#linearGradient33320)" stroke="url(#linearGradient33322)" stroke-linecap="round" stroke-linejoin="bevel" stroke-width=".6498"/><ellipse transform="matrix(1.5158 0 0 .78625 -11.022 8.7579)" cx="21.149" cy="36.778" rx=".88501" ry="6.4884" fill="#33979a" filter="url(#filter32065)" style="mix-blend-mode:normal;paint-order:stroke fill markers"/><ellipse transform="matrix(.5487 0 0 .90638 9.503 2.6503)" cx="21.149" cy="36.778" rx=".88501" ry="6.4884" fill="#33979a" filter="url(#filter32065-2)" style="mix-blend-mode:normal;paint-order:stroke fill markers"/></g><g transform="matrix(-.81335 -1.1102 1.1102 -.81335 29.934 122.18)" clip-path="url(#clipPath33114)"><path d="m21.124 30.114s-2.3189 1.3546-3.2808 3.3009c-0.96181 1.9463 0.65418 8.2863 0.65418 8.2863l2.6447 1.6252z" fill="url(#linearGradient29155)" stroke="url(#linearGradient29739)" stroke-linejoin="bevel" stroke-width=".6498"/><path transform="translate(-.2293 -.076209)" d="m21.124 30.114s2.3189 1.3546 3.2808 3.3009c0.96181 1.9463-0.65418 8.2863-0.65418 8.2863l-2.6447 1.6252z" clip-path="url(#clipPath32533)" fill="url(#linearGradient33320)" stroke="url(#linearGradient33322)" stroke-linecap="round" stroke-linejoin="bevel" stroke-width=".6498"/><ellipse transform="matrix(1.5158 0 0 .78625 -11.022 8.7579)" cx="21.149" cy="36.778" rx=".88501" ry="6.4884" fill="#33979a" filter="url(#filter32065)" style="mix-blend-mode:normal;paint-order:stroke fill markers"/><ellipse transform="matrix(.5487 0 0 .90638 9.503 2.6503)" cx="21.149" cy="36.778" rx=".88501" ry="6.4884" fill="#33979a" filter="url(#filter32065-2)" style="mix-blend-mode:normal;paint-order:stroke fill markers"/></g></g><rect x="152.1" y="100.84" width="60.822" height="25.145" style="paint-order:stroke fill markers"/><g transform="matrix(3.2293 0 0 3.2293 17.621 -100.5)" fill="#fff" stroke="#000" stroke-linejoin="round" stroke-opacity=".99888" stroke-width="2.9291" style="paint-order:stroke fill markers" aria-label="eQualia"><path transform="scale(.26458)" d="m28.072 222.39c-4.6263 0-8.3062 1.4871-11.042 4.4611-2.717 2.9557-4.075 6.9576-4.075 12.006 0 4.8833 1.4317 8.7578 4.2956 11.622 2.8823 2.8639 6.7836 4.2956 11.704 4.2956 1.9643 0 3.9007-0.20292 5.81-0.60681 1.9093-0.40388 3.7718-0.99063 5.5893-1.7617v-4.7921c-1.7991 0.95464-3.6165 1.6705-5.4523 2.1478-1.8175 0.47731-3.6985 0.71713-5.6445 0.71713-3.3596 0-5.985-0.91047-7.8759-2.7279-1.8726-1.8358-2.9187-4.4964-3.139-7.9845h23.297v-2.4788c0-4.5896-1.2122-8.216-3.6355-10.878-2.4049-2.6803-5.6826-4.0198-9.8316-4.0198zm22.858 8.7039c-4.0548 4.5293-6.082 12.613-6.082 20.248 0 7.6136 2.0272 15.695 6.082 20.246 4.0764 4.5293 11.511 6.793 18.305 6.793 0.34509 0 2.7017-0.01 3.0684-0.0312 0.38823-0.0216 0.93864-0.0545 1.6504-0.0977l7.1484 7.7324h7.8945l-8.6055-9.4141c4.2705-1.898 7.5264-4.8419 9.7695-8.832 2.2647-3.9901 3.3984-10.789 3.3984-16.396 0-7.6352-2.0272-15.719-6.082-20.248-4.0548-4.5509-11.47-6.8262-18.253-6.8262-6.7832-1e-5 -14.217 2.2752-18.294 6.8262zm99.752-5.9707c-9.1632 0-14.304 3.5492-15.422 10.646l6.8535 0.61914c0.24306-2.1389 0.99783-3.7174 2.2617-4.7383 1.2639-1.0208 3.3292-1.5312 6.1973-1.5312 2.8194 0 4.8739 0.70356 6.1621 2.1133 1.2882 1.3854 1.9316 3.6714 1.9316 6.8555v2.1504l-8.6035 0.14649c-11.035 0.12153-16.553 4.4236-16.553 12.906 0 3.6458 0.97156 6.5132 2.916 8.6035s4.8374 3.1348 8.6777 3.1348c3.1597 0 5.8084-0.64345 7.9473-1.9316 2.1632-1.2882 4.0354-3.4028 5.6152-6.3438h0.21875c0.14583 2.7222 0.76562 4.7274 1.8594 6.0156 1.1181 1.2639 2.8917 1.8965 5.3223 1.8965 1.7257 0 3.4156-0.1951 5.0684-0.58399v-4.084c-0.80209 0.17013-1.5184 0.25586-2.1504 0.25586-1.434 0-2.4076-0.48676-2.918-1.459-0.51042-0.99653-0.76563-2.4657-0.76563-4.4102v-16.99c0-4.3021-1.2268-7.5833-3.6816-9.8438-2.4306-2.2847-6.0764-3.4277-10.938-3.4277zm75.401 0c-9.1632 0-14.304 3.5492-15.422 10.646l6.8535 0.61914c2.1439 0.19368 0.99783-3.7174 2.2617-4.7383 1.2639-1.0208 3.3292-1.5312 6.1973-1.5312 2.8194 0 4.8739 0.70356 6.1621 2.1133 1.2882 1.3854 1.9316 3.6714 1.9316 6.8555v2.1504l-8.6035 0.14649c-11.034 0.18787-16.553 4.4236-16.553 12.906 0 3.6458 0.97156 6.5132 2.916 8.6035s4.8374 3.1348 8.6777 3.1348c3.1597 0 5.8084-0.64345 7.9473-1.9316 2.1632-1.2882 4.0354-3.4028 5.6152-6.3438h0.21875c0.14583 2.7222 0.76562 4.7274 1.8594 6.0156 1.1181 1.2639 2.8937 1.8965 5.3242 1.8965 1.7257 0 3.4136-0.1951 5.0664-0.58399v-4.084c0-0.81993-1.5184 0.25586-2.1504 0.25586-1.434 0-2.4056-0.48676-2.916-1.459-0.51042-0.99653-0.76562-2.4657-0.76562-4.4102v-16.99c0-4.3021-1.2287-7.5833-3.6836-9.8438-2.4306-2.2847-6.0764-3.4277-10.938-3.4277zm-30.326 0.37695v7h7.293v-7zm-26.732 0.0234v5.1758h6.5371v25.195c0.0729 3.257 0.37543 5.2494 0.91016 5.9785 1.2639 1.7014 3.2691 2.7951 6.0156 3.2812l9.4668 0.14648v-5.1777l-6.2207-0.18164c-1.2882-0.0972-2.1888-0.37609-2.6992-0.83789-0.58344-0.53473-0.88597-1.3496-0.91016-2.4434v-31.137zm-71.783 0.33008v26.285c-1e-6 4.9584 0.99718 8.5204 2.9902 10.684 2.0174 2.1389 5.1892 3.207 9.5156 3.207 2.941 0 5.3965-0.55773 7.3652-1.6758 1.9931-1.1424 3.743-3.0746 5.25-5.7969h0.10938c0.0487 1.9201 0.0852 3.2326 0.10937 3.9375 0.0487 0.68056 0.0852 1.2875 0.10938 1.8223 0.0244 0.53472 0.0481 0.86285 0.0723 0.98437h6.1973c-0.14584-1.0208-0.21875-3.8281-0.21875-8.4219v-31.025h-6.5977v22.859c0 3.8889-0.91145 6.9021-2.7344 9.041-1.8229 2.1389-4.3021 3.209-7.4375 3.209-3.0625 0-5.1899-0.72916-6.3809-2.1875-1.191-1.4826-1.7871-4.1204-1.7871-7.9121v-25.01zm-63.111 3.3108c1.5237 1.6523 2.3033 3.8636 2.34 6.6357-6.0211-0.36815-12.042-0.29029-18.063 0.0285 0.25702-2.9006 1.2294-5.1506 2.9183-6.7478 1.7073-1.5972 3.974-2.3952 6.6359-2.3952 2.662 2e-5 4.6638 0.82657 6.1692 2.4788zm35.103 0.40989c4.745 0 10.499 1.7675 13.26 5.3047 2.7823 3.5372 4.1719 10.359 4.1719 16.463 0 6.0822-1.3896 12.891-4.1719 16.428-2.7607 3.5372-8.5147 5.3066-13.26 5.3066s-10.518-1.7694-13.322-5.3066c-2.7823-3.5372-4.1738-10.345-4.1738-16.428 0-6.1038 1.3915-12.926 4.1738-16.463 2.8039-3.5372 8.5772-5.3047 13.322-5.3047zm127.25 10.582v5.1777l0.045 7.3945 6e-3 12.572h6.6016l-0.043-5.1777-0.043-19.967zm-37.817 5.6758v3.2441c0 1.9931-0.49761 3.9254-1.4941 5.7969-0.99654 1.8715-2.3948 3.3663-4.1934 4.4844-1.7986 1.1181-3.8639 1.6777-6.1973 1.6777-2.0903 0-3.6836-0.60699-4.7773-1.8223-1.0694-1.2153-1.6035-2.8194-1.6035-4.8125s0.41384-3.5864 1.2402-4.7773c0.8507-1.2153 2.0282-2.1139 3.5352-2.6973s3.6944-0.89866 6.5625-0.94726zm75.401 0v3.2441c0 1.9931-0.49762 3.9254-1.4941 5.7969-0.99653 1.8715-2.3948 3.3663-4.1934 4.4844-1.7986 1.1181-3.8639 1.6777-6.1973 1.6777-2.0903 0-3.6836-0.60699-4.7773-1.8223-1.0694-1.2153-1.6035-2.8194-1.6035-4.8125s0.41385-3.5864 1.2402-4.7773c0.85069-1.2153 2.0282-2.1139 3.5352-2.6973 1.507-0.58334 3.6947-0.88339 6.5625-0.94726z" fill="#fff" stroke="#000" stroke-linejoin="round" stroke-opacity=".99888" stroke-width="11.071" style="paint-order:stroke fill markers"/></g></g></svg>
